# xmcd CD database file
#
# Track frame offsets:
#	150
#	30043
#	57233
#	80608
#	95450
#	107920
#	132123
#	138855
#	159175
#	185390
#
# Disc length: 3217 seconds
#
# Revision: 0
# Processed by: cddbd v1.5.1PL2 Copyright (c) Steve Scherf et al.
# Submitted via: CDex 1.51
#
DISCID=710c8f0a
DTITLE=Fattigfolket - le chien et la fille
DYEAR=2005
DGENRE=Jazz
TTITLE0=Tremplin
TTITLE1=Ego
TTITLE2=Concombre
TTITLE3=Le petit éléphant de Mourex
TTITLE4=Dans le buisson
TTITLE5=Rio po Ombe
TTITLE6=Sous le pont
TTITLE7=Pop
TTITLE8=Weck
TTITLE9=Le chien et la fille
EXTD=YEAR: 2005
EXTT0=
EXTT1=
EXTT2=
EXTT3=
EXTT4=
EXTT5=
EXTT6=
EXTT7=
EXTT8=
EXTT9=
PLAYORDER=
